<?xml version="1.0" encoding="UTF-8"?>
<svg version="1.1" xmlns="http://www.w3.org/2000/svg" width="262" height="235">
<path d="M0 0 C0.66 0.70125 1.32 1.4025 2 2.125 C9.26828448 9.29148778 16.22968671 13.27460929 26.5 14.375 C36.3851052 13.31588159 43.98956485 9.85473728 50.375 2.125 C50.91125 1.42375 51.4475 0.7225 52 0 C52.66 0 53.32 0 54 0 C55.04239561 1.19342452 56.03409725 2.43136204 57 3.6875 C62.01519837 9.6050144 68.37143257 12.78385157 76 14 C85.29024274 14.62984697 93.02080653 12.46037933 100.3046875 6.5625 C102.47757431 4.55983934 104.29723214 2.41225447 106 0 C109.2873027 1.09576757 109.62510784 1.58970032 111.5625 4.25 C116.48584209 10.14345876 122.89280391 12.9868551 130.4375 14 C140.15347754 14.45286336 147.85094545 11.46973262 155 5 C156.73205931 3.3777786 158.37227325 1.72945967 160 0 C160.54527344 0.60328125 161.09054688 1.2065625 161.65234375 1.828125 C169.39417566 10.03314343 175.50736269 13.31832143 186.8125 13.7265625 C187.534375 13.81679687 188.25625 13.90703125 189 14 C193.56785309 23.13570618 191.18145477 39.23011569 191.203125 49.37109375 C191.20736607 50.73197459 191.20736607 50.73197459 191.21169281 52.12034798 C191.22657969 56.92553103 191.23587431 61.7306849 191.24023438 66.53588867 C191.24461056 70.4542781 191.2584838 74.3724463 191.28125 78.29077148 C191.62294817 138.29508639 191.62294817 138.29508639 182.125 154.125 C163.53051348 170.53189987 109.52258266 163.32080444 85.51660156 163.26074219 C80.92194864 163.24934864 76.32752752 163.25612759 71.7328825 163.26762486 C-9.2044198 163.43928197 -9.2044198 163.43928197 -22 155 C-25.87637401 150.10196288 -27.02017671 143.74915513 -28.1875 137.75 C-28.35185547 136.98042969 -28.51621094 136.21085938 -28.68554688 135.41796875 C-31.31930166 122.4731173 -31.14938415 109.39884455 -31.1328125 96.25390625 C-31.13348781 94.35163867 -31.13445973 92.44937117 -31.13571167 90.54710388 C-31.1371783 86.57753673 -31.1350678 82.60799223 -31.13037109 78.63842773 C-31.12467838 73.58431218 -31.12795656 68.53024981 -31.13394356 63.47613621 C-31.13758057 59.55274566 -31.13639618 55.62936743 -31.13381577 51.70597649 C-31.13315496 49.84390189 -31.13394486 47.98182612 -31.13629532 46.11975288 C-31.16368523 18.32737045 -31.16368523 18.32737045 -29 14 C-26.84765625 13.76171875 -26.84765625 13.76171875 -24.0625 13.6875 C-13.53316101 12.86915759 -6.84974158 7.71074261 0 0 Z M17 33 C16.34 33.53625 15.68 34.0725 15 34.625 C0.73744603 47.59095816 -3.0766357 67.70534742 -7.96704102 85.56225586 C-8.69000107 88.19661352 -9.42377797 90.82780307 -10.15820312 93.45898438 C-16.21826725 112.2108443 -16.21826725 112.2108443 -14.1015625 131.14453125 C-12.29792412 134.18257462 -9.52056912 135.52295871 -6.20703125 136.5625 C4.26892798 138.63915032 15.03135978 136.75849612 24.3828125 131.71484375 C32.61037217 126.09945607 37.10289703 117.63528615 39 108 C39 106.68 39 105.36 39 104 C39.72703125 104.13277344 40.4540625 104.26554687 41.203125 104.40234375 C42.20859375 104.57894531 43.2140625 104.75554687 44.25 104.9375 C45.22453125 105.11152344 46.1990625 105.28554687 47.203125 105.46484375 C57.75720258 106.95240407 68.29520027 107.19988063 78.9375 107.1875 C79.65634369 107.18789276 80.37518738 107.18828552 81.11581421 107.18869019 C101.2403589 107.28838369 101.2403589 107.28838369 121 104 C121.04125 105.2375 121.0825 106.475 121.125 107.75 C122.05615665 115.83703172 125.85235385 123.44514379 131.8125 129 C141.15767354 136.32604427 151.3783771 137.83883105 163 137 C167.17001277 136.14305563 170.2304851 134.69059029 173.4375 131.8125 C180.6893976 118.75908432 171.44835264 97.26175945 167.71386719 83.99804688 C166.87753902 81.00907427 166.07132285 78.01297782 165.265625 75.015625 C161.13244759 60.0318441 155.98768593 42.75390988 143 33 C142.44570312 32.55269531 141.89140625 32.10539062 141.3203125 31.64453125 C134.75606064 27.37047393 125.49521185 28.0812321 118 29 C113.47698014 30.23836708 110.80000554 32.16591243 107.56445312 35.53930664 C103.24583457 39.11722919 98.62274488 38.75531322 93.23046875 38.734375 C92.19489334 38.74390198 91.15931793 38.75342896 90.09236145 38.76324463 C87.90625312 38.77538299 85.72003965 38.77459618 83.53393555 38.76171875 C80.20758281 38.75007033 76.88634259 38.80223328 73.56054688 38.859375 C71.42969104 38.86326176 69.29882435 38.863384 67.16796875 38.859375 C66.18330124 38.87981873 65.19863373 38.90026245 64.18412781 38.92132568 C57.5112914 38.81062774 53.99401829 37.20478577 49.06440735 32.6963501 C41.28952959 26.30763295 24.7990976 26.64517974 17 33 Z " fill="#FDFDFD" transform="translate(51,72)"/>
<path d="M0 0 C1.65361571 -0.00135726 3.30723111 -0.00313901 4.96084595 -0.00531006 C9.42800108 -0.00984721 13.89513297 -0.0081098 18.36228848 -0.00493097 C23.05624386 -0.0023864 27.75019736 -0.00475089 32.44415283 -0.00631714 C40.3289831 -0.00813344 48.21380398 -0.00574741 56.09863281 -0.00097656 C65.18375807 0.00445746 74.26886084 0.00270748 83.35398555 -0.00280297 C91.18109476 -0.0073585 99.00819725 -0.00797252 106.83530736 -0.0053643 C111.4980654 -0.00381394 116.16081291 -0.0035733 120.82357025 -0.00690079 C125.21326612 -0.00981482 129.60293338 -0.0077397 133.99262619 -0.00200653 C135.5928607 -0.00069739 137.19309766 -0.00104116 138.79333115 -0.0032692 C167.75337923 -0.03983584 167.75337923 -0.03983584 173.48144531 5.12939453 C174.30128906 5.78101563 174.30128906 5.78101563 175.13769531 6.44580078 C179.81582523 10.21087464 183.63487274 14.53955993 187.48144531 19.12939453 C188.31417969 20.09748047 189.14691406 21.06556641 190.00488281 22.06298828 C190.89345864 23.10548423 191.78148127 24.14845196 192.66894531 25.19189453 C193.4875 26.15224609 194.30605469 27.11259766 195.14941406 28.10205078 C200.38862156 34.90336705 202.12818674 39.06899259 201.91894531 47.56689453 C201.92603516 48.37449219 201.933125 49.18208984 201.94042969 50.01416016 C201.85413742 58.25175299 199.4024333 66.16661133 193.48144531 72.12939453 C185.7028213 77.65532903 179.08789912 80.36932529 169.48144531 79.12939453 C161.44448724 76.45369964 155.59483328 72.6040958 151.48144531 65.12939453 C150.10644531 62.12939453 150.10644531 62.12939453 149.48144531 60.12939453 C149.17851562 60.72107422 148.87558594 61.31275391 148.56347656 61.92236328 C144.01034512 70.51026967 138.85673963 75.95221146 129.48144531 79.12939453 C119.91519104 80.57429752 113.1263641 78.16645682 105.23144531 73.00439453 C101.56859278 69.1750487 99.59582098 64.94755148 97.48144531 60.12939453 C97.21332031 60.69787109 96.94519531 61.26634766 96.66894531 61.85205078 C92.99361056 69.09391104 88.27786863 74.69375313 80.73144531 78.06689453 C72.71703315 80.58121992 64.32421256 79.92524311 56.73535156 76.45361328 C50.01059324 72.50267208 46.55621641 67.13987263 43.48144531 60.12939453 C43.06185547 61.10779297 43.06185547 61.10779297 42.63378906 62.10595703 C39.19561596 69.6013955 35.41656019 74.57263638 27.79394531 78.00439453 C20.46307884 80.35821239 13.01867803 80.236962 6.04394531 76.94189453 C-1.25486714 72.75615385 -4.76215204 67.46636821 -8.51855469 60.12939453 C-8.74929687 60.64888672 -8.98003906 61.16837891 -9.21777344 61.70361328 C-12.88314094 69.54141493 -17.97982341 74.0288294 -25.51855469 78.12939453 C-32.11385237 80.32782709 -38.62993305 79.93753966 -44.89355469 76.94189453 C-51.70362572 73.09038517 -57.81327192 66.99034387 -60.06054688 59.26660156 C-61.90772624 50.64708763 -62.35967759 39.73325408 -57.58105469 32.12939453 C-56.27391903 30.42559245 -54.91672627 28.75932133 -53.51855469 27.12939453 C-52.73867188 26.13939453 -51.95878906 25.14939453 -51.15527344 24.12939453 C-44.42140061 15.66521396 -44.42140061 15.66521396 -41.51855469 13.12939453 C-40.85855469 13.12939453 -40.19855469 13.12939453 -39.51855469 13.12939453 C-39.18855469 12.13939453 -38.85855469 11.14939453 -38.51855469 10.12939453 C-37.85855469 10.12939453 -37.19855469 10.12939453 -36.51855469 10.12939453 C-36.51855469 9.46939453 -36.51855469 8.80939453 -36.51855469 8.12939453 C-34.83886719 6.65673828 -34.83886719 6.65673828 -32.64355469 5.06689453 C-31.92425781 4.53966797 -31.20496094 4.01244141 -30.46386719 3.46923828 C-22.29010382 -2.16048227 -9.53235775 -0.01319859 0 0 Z " fill="#FDFDFD" transform="translate(60.5185546875,-0.12939453125)"/>
<path d="M0 0 C3.57776592 1.67259969 5.8170867 3.63845247 8.5625 6.5 C10.9961985 9.02809153 13.07009401 11.04672934 16 13 C16 13.66 16 14.32 16 15 C16.66 15 17.32 15 18 15 C19.5859375 16.57421875 19.5859375 16.57421875 21.375 18.6875 C22.30119141 19.77998047 22.30119141 19.77998047 23.24609375 20.89453125 C23.82488281 21.58933594 24.40367187 22.28414062 25 23 C26.2065625 24.423125 26.2065625 24.423125 27.4375 25.875 C29 28 29 28 29 30 C24.05 29.67 19.1 29.34 14 29 C14.020625 31.124375 14.04125 33.24875 14.0625 35.4375 C14.08373783 37.62499611 14.07258946 39.81360547 14 42 C12.28432208 43.71567792 10.02627265 43.13015825 7.6875 43.1328125 C6.61242187 43.13410156 5.53734375 43.13539063 4.4296875 43.13671875 C3.29789063 43.13285156 2.16609375 43.12898438 1 43.125 C-0.13179687 43.12886719 -1.26359375 43.13273437 -2.4296875 43.13671875 C-3.50476563 43.13542969 -4.57984375 43.13414062 -5.6875 43.1328125 C-7.17830078 43.13112061 -7.17830078 43.13112061 -8.69921875 43.12939453 C-11 43 -11 43 -12 42 C-12.14393457 37.66469082 -12.04212061 33.33842269 -12 29 C-16.95 29.33 -21.9 29.66 -27 30 C-25.33032732 25.82581829 -24.34003535 23.88253977 -21.5 20.6875 C-20.8915625 19.99011719 -20.283125 19.29273438 -19.65625 18.57421875 C-18 17 -18 17 -16 17 C-15.60578857 16.11006348 -15.60578857 16.11006348 -15.20361328 15.20214844 C-13.94261566 12.89500878 -12.67933425 11.5266675 -10.7421875 9.765625 C-10.11699219 9.19199219 -9.49179688 8.61835938 -8.84765625 8.02734375 C-8.19667969 7.44082031 -7.54570313 6.85429687 -6.875 6.25 C-6.21628906 5.64800781 -5.55757812 5.04601562 -4.87890625 4.42578125 C-3.25731491 2.94519785 -1.63097546 1.47022875 0 0 Z " fill="#FEFEFE" transform="translate(130,125)"/>
</svg>
